<svg width="347" height="219" viewBox="0 0 347 219" fill="none" xmlns="http://www.w3.org/2000/svg">
<path d="M194.71 210.058L194.71 180.058C194.876 177.725 193.71 173.058 187.71 173.058C181.71 173.058 134.21 173.058 111.21 173.058L74.7097 173.058C72.3764 172.725 67.7097 173.658 67.7097 180.058C67.7097 186.458 67.7097 202.725 67.7097 210.058" stroke="#2D0090"/>
<path d="M284.712 219L284.712 193.905C284.85 191.953 283.886 188.049 278.926 188.049C273.966 188.049 234.698 188.049 215.685 188.049L185.511 188.049C183.582 187.77 179.725 188.551 179.725 193.904C179.725 199.258 179.725 212.866 179.725 219" stroke="#2D0090"/>
<path d="M132.725 209L132.725 180.521C132.725 169.964 132.725 147.771 132.725 143.45C132.725 139.129 123.725 137.23 119.225 136.821C112.391 136.821 96.2246 136.821 86.2246 136.821C76.2246 136.821 73.7246 132.729 73.7246 130.683C73.7246 122.418 73.7246 104.365 73.7246 98.2765C73.7246 92.188 82.0579 91.6478 86.2246 92.1389L133.725 92.1389L139.725 92.1389" stroke="#2D0090"/>
<circle cx="24.7242" cy="46" r="34.6724" stroke="#2D0090"/>
<circle cx="24.7241" cy="46" r="45.2241" stroke="#2D0090"/>
<circle cx="330.724" cy="125" r="34.6724" stroke="#2D0090"/>
<circle cx="330.724" cy="125" r="45.2241" stroke="#2D0090"/>
<circle cx="330.725" cy="125" r="56.9483" stroke="#2D0090"/>
<circle cx="330.725" cy="125" r="67.5" stroke="#2D0090"/>
<path d="M330.725 128.538H226.052C220.543 129.015 209.525 132.834 209.525 144.29C209.525 158.611 204.016 162.907 189.993 162.907C178.775 162.907 87.8251 162.907 43.7526 162.907C38.0766 163.544 26.7246 161.189 26.7246 146.677C26.7246 132.166 26.7246 72.8459 26.7246 45" stroke="#2D0090"/>
<path d="M351.725 9.75758H297.201C276.99 9.75758 234.499 9.75758 226.227 9.75758C217.954 9.75758 214.319 22.303 213.536 28.5758C213.536 38.101 213.536 60.6364 213.536 74.5758C213.536 88.5152 205.702 92 201.785 92C185.961 92 151.398 92 139.741 92C128.084 92 127.05 80.3838 127.99 74.5758V8.36364V0" stroke="#2D0090"/>
<ellipse cx="329.225" cy="134" rx="8.5" ry="2" fill="#2D0090" fill-opacity="0.5"/>
<path d="M328.725 114C332.591 114 335.725 116.798 335.725 120.263C335.725 126.255 328.725 134.069 328.725 134.069C328.725 134.069 321.725 126.254 321.725 120.263C321.725 116.799 324.858 114 328.725 114V114ZM328.725 123.728C329.727 123.728 330.689 123.371 331.397 122.736C332.106 122.1 332.505 121.238 332.505 120.34C332.505 119.441 332.106 118.579 331.397 117.943C330.689 117.308 329.727 116.951 328.725 116.951C327.722 116.951 326.761 117.308 326.052 117.943C325.343 118.579 324.945 119.441 324.945 120.34C324.945 121.238 325.343 122.1 326.052 122.736C326.761 123.371 327.722 123.728 328.725 123.728Z" fill="#2D0090"/>
<path d="M31.8666 42.5974C32.684 42.0882 33.6782 42.9154 33.3261 43.8118L27.0084 59.8933C26.6761 60.7391 25.4792 60.7391 25.1469 59.8933L18.8293 43.8118C18.4771 42.9154 19.4713 42.0882 20.2888 42.5974L25.5489 45.8744C25.8726 46.076 26.2828 46.076 26.6064 45.8744L31.8666 42.5974Z" fill="#2D0090"/>
<path d="M195.725 1V31C195.558 33.3333 196.725 38 202.725 38C208.725 38 256.225 38 279.225 38H315.725C318.058 38.3333 322.725 37.4 322.725 31C322.725 24.6 322.725 8.33333 322.725 1" stroke="#2D0090"/>
<path d="M83.733 0V17.0002C83.6386 18.3224 84.2999 20.9669 87.7011 20.9669C91.1022 20.9669 118.028 20.9669 131.066 20.9669H151.757C153.079 21.1558 155.725 20.6269 155.725 17.0002C155.725 13.3735 155.725 4.1556 155.725 0" stroke="#2D0090"/>
<rect x="143.5" y="46.5" width="54" height="34" rx="4.5" stroke="#2D0090"/>
</svg>
