<svg width="21" height="19" viewBox="0 0 21 19" fill="none" xmlns="http://www.w3.org/2000/svg">
<g clip-path="url(#clip0_1422_2145)">
<path d="M15.8685 7.62893V7.07531C15.8685 4.03559 13.4649 1.57141 10.4999 1.57141C7.5349 1.57141 5.13129 4.03559 5.13129 7.07531V7.62893C5.13129 8.29332 4.93946 8.94285 4.57998 9.49565L3.69906 10.8503C2.89443 12.0877 3.5087 13.7696 4.90815 14.1608C8.56914 15.1845 12.4307 15.1845 16.0917 14.1608C17.4911 13.7696 18.1054 12.0877 17.3008 10.8503L16.4198 9.49565C16.0604 8.94285 15.8685 8.29332 15.8685 7.62893Z" stroke="#FF8D41" stroke-width="1.5"/>
<path d="M6.92041 14.9286C7.44145 16.3018 8.84736 17.2857 10.5 17.2857C12.1525 17.2857 13.5585 16.3018 14.0795 14.9286" stroke="#FF8D41" stroke-width="1.5" stroke-linecap="round"/>
</g>
<defs>
<clipPath id="clip0_1422_2145">
<rect x="0.95459" width="19.0909" height="18.8571" rx="5" fill="white"/>
</clipPath>
</defs>
</svg>
