<svg width="21" height="20" viewBox="0 0 21 20" fill="none" xmlns="http://www.w3.org/2000/svg">
<path d="M8.90905 17.5C12.4236 17.5 15.2727 14.6509 15.2727 11.1363C15.2727 7.6218 12.4236 4.77271 8.90905 4.77271C5.39451 4.77271 2.54541 7.6218 2.54541 11.1363C2.54541 12.1191 2.7682 13.0499 3.16602 13.8809C3.30276 14.1665 3.35076 14.49 3.26892 14.7959L3.00798 15.7712C2.80231 16.5399 3.50554 17.2431 4.27421 17.0374L5.24947 16.7765C5.55536 16.6946 5.87893 16.7426 6.16453 16.8794C6.9955 17.2772 7.92626 17.5 8.90905 17.5Z" stroke="#FF8D41" stroke-width="1.19318"/>
<path d="M15.2726 11.5355C15.3255 11.5135 15.3779 11.4906 15.4299 11.4668C15.7179 11.3353 16.0411 11.2861 16.3469 11.3679L16.7256 11.4692C17.4943 11.6749 18.1975 10.9717 17.9918 10.203L17.8905 9.82432C17.8087 9.51843 17.8579 9.19527 17.9895 8.90725C18.288 8.2536 18.4544 7.5269 18.4544 6.76134C18.4544 3.90577 16.1395 1.59088 13.284 1.59088C11.1344 1.59088 9.29127 2.90258 8.51123 4.7692" stroke="#FF8D41" stroke-width="1.19318"/>
<path d="M6.13933 11.1364H6.14649M8.91604 11.1364H8.9232M11.693 11.1364H11.7001" stroke="#FF8D41" stroke-width="1.59091" stroke-linecap="round" stroke-linejoin="round"/>
</svg>
