<svg width="20" height="19" viewBox="0 0 20 19" fill="none" xmlns="http://www.w3.org/2000/svg">
<path d="M2.27246 9.29822C2.27246 7.55465 2.27246 6.68287 2.67366 5.96018C3.07486 5.23749 3.80783 4.78896 5.27376 3.8919L6.81921 2.94618C8.36881 1.99793 9.1436 1.5238 9.99973 1.5238C10.8559 1.5238 11.6307 1.99793 13.1803 2.94618L14.7257 3.8919C16.1916 4.78896 16.9246 5.23749 17.3258 5.96018C17.727 6.68287 17.727 7.55465 17.727 9.29822V10.4571C17.727 13.4292 17.727 14.9153 16.8217 15.8386C15.9164 16.7619 14.4593 16.7619 11.5452 16.7619H8.45428C5.54014 16.7619 4.08307 16.7619 3.17777 15.8386C2.27246 14.9153 2.27246 13.4292 2.27246 10.4571V9.29822Z" stroke="#FF8D41" stroke-width="1.96429"/>
<path d="M12.318 13.7143H7.68164" stroke="#FF8D41" stroke-width="1.96429" stroke-linecap="round"/>
</svg>
