<svg width="25" height="24" viewBox="0 0 25 24" fill="none" xmlns="http://www.w3.org/2000/svg">
<path fill-rule="evenodd" clip-rule="evenodd" d="M8.68859 9C8.68859 6.92893 10.3992 5.25 12.5093 5.25C14.6195 5.25 16.3301 6.92893 16.3301 9C16.3301 11.0711 14.6195 12.75 12.5093 12.75C10.3992 12.75 8.68859 11.0711 8.68859 9ZM12.5093 6.75C11.2433 6.75 10.2169 7.75736 10.2169 9C10.2169 10.2426 11.2433 11.25 12.5093 11.25C13.7754 11.25 14.8018 10.2426 14.8018 9C14.8018 7.75736 13.7754 6.75 12.5093 6.75Z" fill="#FF8D41"/>
<path fill-rule="evenodd" clip-rule="evenodd" d="M1.55652 12C1.55652 6.06294 6.46027 1.25 12.5093 1.25C18.5584 1.25 23.4622 6.06294 23.4622 12C23.4622 17.9371 18.5584 22.75 12.5093 22.75C6.46027 22.75 1.55652 17.9371 1.55652 12ZM12.5093 2.75C7.30433 2.75 3.08482 6.89137 3.08482 12C3.08482 14.5456 4.13249 16.851 5.82772 18.5235C6.01152 17.5504 6.37265 16.6329 7.0975 15.8951C8.18173 14.7915 9.91548 14.25 12.5093 14.25C15.1031 14.25 16.8369 14.7915 17.9211 15.8951C18.646 16.6329 19.0071 17.5505 19.1909 18.5236C20.8862 16.8511 21.9339 14.5456 21.9339 12C21.9339 6.89137 17.7144 2.75 12.5093 2.75ZM17.801 19.6554C17.6972 18.4435 17.4291 17.5553 16.8209 16.9363C16.1592 16.2628 14.9331 15.75 12.5093 15.75C10.0855 15.75 8.85937 16.2628 8.19765 16.9363C7.58951 17.5553 7.32139 18.4434 7.21758 19.6553C8.72613 20.6618 10.5478 21.25 12.5093 21.25C14.4709 21.25 16.2925 20.6618 17.801 19.6554Z" fill="#FF8D41"/>
<path fill-rule="evenodd" clip-rule="evenodd" d="M8.68859 9C8.68859 6.92893 10.3992 5.25 12.5093 5.25C14.6195 5.25 16.3301 6.92893 16.3301 9C16.3301 11.0711 14.6195 12.75 12.5093 12.75C10.3992 12.75 8.68859 11.0711 8.68859 9ZM12.5093 6.75C11.2433 6.75 10.2169 7.75736 10.2169 9C10.2169 10.2426 11.2433 11.25 12.5093 11.25C13.7754 11.25 14.8018 10.2426 14.8018 9C14.8018 7.75736 13.7754 6.75 12.5093 6.75Z" stroke="#FF8D41" stroke-linecap="round"/>
<path fill-rule="evenodd" clip-rule="evenodd" d="M1.55652 12C1.55652 6.06294 6.46027 1.25 12.5093 1.25C18.5584 1.25 23.4622 6.06294 23.4622 12C23.4622 17.9371 18.5584 22.75 12.5093 22.75C6.46027 22.75 1.55652 17.9371 1.55652 12ZM12.5093 2.75C7.30433 2.75 3.08482 6.89137 3.08482 12C3.08482 14.5456 4.13249 16.851 5.82772 18.5235C6.01152 17.5504 6.37265 16.6329 7.0975 15.8951C8.18173 14.7915 9.91548 14.25 12.5093 14.25C15.1031 14.25 16.8369 14.7915 17.9211 15.8951C18.646 16.6329 19.0071 17.5505 19.1909 18.5236C20.8862 16.8511 21.9339 14.5456 21.9339 12C21.9339 6.89137 17.7144 2.75 12.5093 2.75ZM17.801 19.6554C17.6972 18.4435 17.4291 17.5553 16.8209 16.9363C16.1592 16.2628 14.9331 15.75 12.5093 15.75C10.0855 15.75 8.85937 16.2628 8.19765 16.9363C7.58951 17.5553 7.32139 18.4434 7.21758 19.6553C8.72613 20.6618 10.5478 21.25 12.5093 21.25C14.4709 21.25 16.2925 20.6618 17.801 19.6554Z" stroke="#FF8D41" stroke-linecap="round"/>
</svg>
