<svg width="25" height="24" viewBox="0 0 25 24" fill="none" xmlns="http://www.w3.org/2000/svg">
<path fill-rule="evenodd" clip-rule="evenodd" d="M8.68868 9C8.68868 6.92893 10.3993 5.25 12.5094 5.25C14.6196 5.25 16.3302 6.92893 16.3302 9C16.3302 11.0711 14.6196 12.75 12.5094 12.75C10.3993 12.75 8.68868 11.0711 8.68868 9ZM12.5094 6.75C11.2433 6.75 10.217 7.75736 10.217 9C10.217 10.2426 11.2433 11.25 12.5094 11.25C13.7755 11.25 14.8019 10.2426 14.8019 9C14.8019 7.75736 13.7755 6.75 12.5094 6.75Z" fill="#333333"/>
<path fill-rule="evenodd" clip-rule="evenodd" d="M1.5566 12C1.5566 6.06294 6.46035 1.25 12.5094 1.25C18.5585 1.25 23.4623 6.06294 23.4623 12C23.4623 17.9371 18.5585 22.75 12.5094 22.75C6.46035 22.75 1.5566 17.9371 1.5566 12ZM12.5094 2.75C7.30441 2.75 3.0849 6.89137 3.0849 12C3.0849 14.5456 4.13257 16.851 5.8278 18.5235C6.0116 17.5504 6.37273 16.6329 7.09758 15.8951C8.18181 14.7915 9.91556 14.25 12.5094 14.25C15.1032 14.25 16.8369 14.7915 17.9212 15.8951C18.6461 16.6329 19.0072 17.5505 19.191 18.5236C20.8863 16.8511 21.934 14.5456 21.934 12C21.934 6.89137 17.7145 2.75 12.5094 2.75ZM17.8011 19.6554C17.6973 18.4435 17.4292 17.5553 16.821 16.9363C16.1593 16.2628 14.9332 15.75 12.5094 15.75C10.0855 15.75 8.85945 16.2628 8.19773 16.9363C7.58959 17.5553 7.32147 18.4434 7.21766 19.6553C8.72621 20.6618 10.5478 21.25 12.5094 21.25C14.471 21.25 16.2926 20.6618 17.8011 19.6554Z" fill="#333333"/>
</svg>
