<svg width="16" height="17" viewBox="0 0 16 17" fill="none" xmlns="http://www.w3.org/2000/svg">
<path d="M8.07129 10.75C9.31393 10.75 10.3213 9.74264 10.3213 8.5C10.3213 7.25736 9.31393 6.25 8.07129 6.25C6.82865 6.25 5.82129 7.25736 5.82129 8.5C5.82129 9.74264 6.82865 10.75 8.07129 10.75Z" stroke="#141414" stroke-width="1.5"/>
<path d="M9.39489 1.114C9.11964 1 8.77014 1 8.07114 1C7.37214 1 7.02264 1 6.74739 1.114C6.56527 1.18938 6.3998 1.29992 6.26043 1.43929C6.12106 1.57866 6.01052 1.74414 5.93514 1.92625C5.86614 2.0935 5.83839 2.28925 5.82789 2.5735C5.82322 2.77899 5.76639 2.97992 5.66275 3.15743C5.55911 3.33493 5.41205 3.48318 5.23539 3.58825C5.05606 3.68878 4.85412 3.74208 4.64854 3.74313C4.44296 3.74418 4.24048 3.69295 4.06014 3.59425C3.80814 3.46075 3.62589 3.38725 3.44514 3.36325C3.05088 3.3114 2.65216 3.41823 2.33664 3.66025C2.10114 3.8425 1.92564 4.14475 1.57614 4.75C1.22664 5.35525 1.05114 5.6575 1.01289 5.95375C0.987115 6.14909 1.00008 6.34759 1.05104 6.53792C1.102 6.72825 1.18996 6.90667 1.30989 7.063C1.42089 7.207 1.57614 7.32775 1.81689 7.47925C2.17164 7.702 2.39964 8.0815 2.39964 8.5C2.39964 8.9185 2.17164 9.298 1.81689 9.52C1.57614 9.67225 1.42014 9.793 1.30989 9.937C1.18996 10.0933 1.102 10.2718 1.05104 10.4621C1.00008 10.6524 0.987115 10.8509 1.01289 11.0463C1.05189 11.3418 1.22664 11.6448 1.57539 12.25C1.92564 12.8552 2.10039 13.1575 2.33664 13.3397C2.49297 13.4597 2.67139 13.5476 2.86172 13.5986C3.05205 13.6496 3.25055 13.6625 3.44589 13.6368C3.62589 13.6128 3.80814 13.5393 4.06014 13.4058C4.24048 13.3071 4.44296 13.2558 4.64854 13.2569C4.85412 13.2579 5.05606 13.3112 5.23539 13.4117C5.59764 13.6217 5.81289 14.008 5.82789 14.4265C5.83839 14.7115 5.86539 14.9065 5.93514 15.0737C6.01052 15.2559 6.12106 15.4213 6.26043 15.5607C6.3998 15.7001 6.56527 15.8106 6.74739 15.886C7.02264 16 7.37214 16 8.07114 16C8.77014 16 9.11964 16 9.39489 15.886C9.577 15.8106 9.74247 15.7001 9.88185 15.5607C10.0212 15.4213 10.1318 15.2559 10.2071 15.0737C10.2761 14.9065 10.3039 14.7115 10.3144 14.4265C10.3294 14.008 10.5446 13.621 10.9069 13.4117C11.0862 13.3112 11.2882 13.2579 11.4937 13.2569C11.6993 13.2558 11.9018 13.3071 12.0821 13.4058C12.3341 13.5393 12.5164 13.6128 12.6964 13.6368C12.8917 13.6625 13.0902 13.6496 13.2806 13.5986C13.4709 13.5476 13.6493 13.4597 13.8056 13.3397C14.0419 13.1582 14.2166 12.8552 14.5661 12.25C14.9156 11.6448 15.0911 11.3425 15.1294 11.0463C15.1552 10.8509 15.1422 10.6524 15.0912 10.4621C15.0403 10.2718 14.9523 10.0933 14.8324 9.937C14.7214 9.793 14.5661 9.67225 14.3254 9.52075C14.1497 9.41396 14.004 9.26425 13.9021 9.08569C13.8001 8.90713 13.7453 8.70559 13.7426 8.5C13.7426 8.0815 13.9706 7.702 14.3254 7.48C14.5661 7.32775 14.7221 7.207 14.8324 7.063C14.9523 6.90667 15.0403 6.72825 15.0912 6.53792C15.1422 6.34759 15.1552 6.14909 15.1294 5.95375C15.0904 5.65825 14.9156 5.35525 14.5669 4.75C14.2166 4.14475 14.0419 3.8425 13.8056 3.66025C13.6493 3.54032 13.4709 3.45236 13.2806 3.4014C13.0902 3.35044 12.8917 3.33748 12.6964 3.36325C12.5164 3.38725 12.3341 3.46075 12.0814 3.59425C11.9011 3.69281 11.6988 3.74397 11.4934 3.74292C11.2879 3.74187 11.0861 3.68865 10.9069 3.58825C10.7302 3.48318 10.5832 3.33493 10.4795 3.15743C10.3759 2.97992 10.3191 2.77899 10.3144 2.5735C10.3039 2.2885 10.2769 2.0935 10.2071 1.92625C10.1318 1.74414 10.0212 1.57866 9.88185 1.43929C9.74247 1.29992 9.577 1.18938 9.39489 1.114Z" stroke="#141414" stroke-width="1.5"/>
</svg>
