<svg width="32" height="32" viewBox="0 0 32 32" fill="none" xmlns="http://www.w3.org/2000/svg">
<path fill-rule="evenodd" clip-rule="evenodd" d="M16 0C15.0182 0 14.2222 0.795939 14.2222 1.77778V14.2222H1.77778C0.795939 14.2222 0 15.0182 0 16C0 16.9818 0.795939 17.7778 1.77778 17.7778H14.2222V30.2222C14.2222 31.2041 15.0182 32 16 32C16.9818 32 17.7778 31.2041 17.7778 30.2222V17.7778H30.2222C31.2041 17.7778 32 16.9818 32 16C32 15.0182 31.2041 14.2222 30.2222 14.2222H17.7778V1.77778C17.7778 0.795939 16.9818 0 16 0Z" fill="#FFF7F3"/>
</svg>
