<svg width="19" height="19" viewBox="0 0 19 19" fill="none" xmlns="http://www.w3.org/2000/svg">
<path d="M1.54541 9.29822C1.54541 7.55465 1.54541 6.68287 1.94661 5.96018C2.34781 5.23749 3.08078 4.78896 4.54671 3.8919L6.09216 2.94618C7.64176 1.99793 8.41655 1.5238 9.27268 1.5238C10.1288 1.5238 10.9036 1.99793 12.4532 2.94618L13.9987 3.8919C15.4646 4.78896 16.1976 5.23749 16.5988 5.96018C17 6.68287 17 7.55465 17 9.29822V10.4571C17 13.4292 17 14.9153 16.0947 15.8386C15.1893 16.7619 13.7323 16.7619 10.8181 16.7619H7.72723C4.81309 16.7619 3.35602 16.7619 2.45072 15.8386C1.54541 14.9153 1.54541 13.4292 1.54541 10.4571V9.29822Z" stroke="#141414" stroke-width="1.96429"/>
<path d="M11.591 13.7143H6.95459" stroke="#141414" stroke-width="1.96429" stroke-linecap="round"/>
</svg>
