<svg width="56" height="60" viewBox="0 0 56 60" fill="none" xmlns="http://www.w3.org/2000/svg">
<circle cx="28" cy="28" r="28" fill="#FF8D41"/>
<g filter="url(#filter0_d_1501_1793)">
<circle cx="28" cy="28" r="23.75" stroke="url(#paint0_linear_1501_1793)" stroke-width="0.5" shape-rendering="crispEdges"/>
</g>
<path d="M21.6044 23.7586C22.7947 23.7586 23.7596 22.7937 23.7596 21.6034C23.7596 20.4131 22.7947 19.4482 21.6044 19.4482C20.4141 19.4482 19.4492 20.4131 19.4492 21.6034C19.4492 22.7937 20.4141 23.7586 21.6044 23.7586Z" fill="white"/>
<path opacity="0.3" d="M18.5859 18.5862V27.4714L29.5283 38.4138L38.4135 29.5285L27.4712 18.5862H18.5859ZM21.684 23.5431C20.6554 23.5431 19.8252 22.7128 19.8252 21.6842C19.8252 20.6557 20.6554 19.8254 21.684 19.8254C22.7126 19.8254 23.5428 20.6557 23.5428 21.6842C23.5428 22.7128 22.7126 23.5431 21.684 23.5431Z" fill="white"/>
<path d="M40.2579 27.7654L29.2225 16.7252C28.7601 16.2626 28.1227 16 27.4603 16H18.4995C17.1248 16 16 17.1253 16 18.5006V27.4654C16 28.128 16.2625 28.7657 16.7374 29.2283L27.7728 40.2686C28.7476 41.2438 30.3348 41.2438 31.3096 40.2686L40.2704 31.3038C41.2453 30.3286 41.2453 28.7532 40.2579 27.7654ZM29.535 38.5056L18.4995 27.4654V18.5006H27.4603L38.4958 29.5409L29.535 38.5056Z" fill="white"/>
<defs>
<filter id="filter0_d_1501_1793" x="0" y="4" width="56" height="56" filterUnits="userSpaceOnUse" color-interpolation-filters="sRGB">
<feFlood flood-opacity="0" result="BackgroundImageFix"/>
<feColorMatrix in="SourceAlpha" type="matrix" values="0 0 0 0 0 0 0 0 0 0 0 0 0 0 0 0 0 0 127 0" result="hardAlpha"/>
<feOffset dy="4"/>
<feGaussianBlur stdDeviation="2"/>
<feComposite in2="hardAlpha" operator="out"/>
<feColorMatrix type="matrix" values="0 0 0 0 1 0 0 0 0 1 0 0 0 0 1 0 0 0 1 0"/>
<feBlend mode="normal" in2="BackgroundImageFix" result="effect1_dropShadow_1501_1793"/>
<feBlend mode="normal" in="SourceGraphic" in2="effect1_dropShadow_1501_1793" result="shape"/>
</filter>
<linearGradient id="paint0_linear_1501_1793" x1="28" y1="4" x2="28" y2="52" gradientUnits="userSpaceOnUse">
<stop stop-color="white"/>
<stop offset="1" stop-color="#E3E3E3"/>
</linearGradient>
</defs>
</svg>
