<svg width="37" height="36" viewBox="0 0 37 36" fill="none" xmlns="http://www.w3.org/2000/svg">
<circle cx="18.25" cy="18" r="18" fill="#FF8D41"/>
<path fill-rule="evenodd" clip-rule="evenodd" d="M18.0356 7.71436C17.4044 7.71436 16.8927 8.22603 16.8927 8.85721V16.8574H8.89286C8.26167 16.8574 7.75 17.369 7.75 18.0002C7.75 18.6314 8.26168 19.1431 8.89286 19.1431H16.8927V27.1429C16.8927 27.7741 17.4044 28.2858 18.0356 28.2858C18.6668 28.2858 19.1784 27.7741 19.1784 27.1429V19.1431H27.1786C27.8098 19.1431 28.3214 18.6314 28.3214 18.0002C28.3214 17.369 27.8098 16.8574 27.1786 16.8574H19.1784V8.85721C19.1784 8.22603 18.6668 7.71436 18.0356 7.71436Z" fill="#FFF7F3"/>
</svg>
