<svg width="120" height="120" viewBox="0 0 120 120" fill="none" xmlns="http://www.w3.org/2000/svg">
<circle cx="60" cy="60" r="60" fill="#D9D9D9"/>
<path fill-rule="evenodd" clip-rule="evenodd" d="M53.3333 87H66.6667C76.0298 87 80.7113 87 84.0743 84.7938C85.5301 83.8387 86.7802 82.6114 87.7529 81.182C90 77.8802 90 73.2838 90 64.0909C90 54.8981 90 50.3016 87.7529 46.9998C86.7802 45.5704 85.5301 44.3431 84.0743 43.388C81.9133 41.9704 79.208 41.4637 75.066 41.2826C73.0894 41.2826 71.3876 39.812 71 37.9091C70.4185 35.0547 67.8658 33 64.901 33H55.099C52.1342 33 49.5815 35.0547 49 37.9091C48.6124 39.812 46.9106 41.2826 44.934 41.2826C40.792 41.4637 38.0867 41.9704 35.9257 43.388C34.4699 44.3431 33.2199 45.5704 32.2471 46.9998C30 50.3016 30 54.8981 30 64.0909C30 73.2838 30 77.8802 32.2471 81.182C33.2199 82.6114 34.4699 83.8387 35.9257 84.7938C39.2887 87 43.9703 87 53.3333 87ZM60 51.8182C53.0964 51.8182 47.5 57.3129 47.5 64.0909C47.5 70.869 53.0964 76.3636 60 76.3636C66.9036 76.3636 72.5 70.869 72.5 64.0909C72.5 57.3129 66.9036 51.8182 60 51.8182ZM60 56.7273C55.8579 56.7273 52.5 60.0241 52.5 64.0909C52.5 68.1577 55.8579 71.4545 60 71.4545C64.1421 71.4545 67.5 68.1577 67.5 64.0909C67.5 60.0241 64.1421 56.7273 60 56.7273ZM74.1667 54.2727C74.1667 52.9171 75.286 51.8182 76.6667 51.8182H80C81.3807 51.8182 82.5 52.9171 82.5 54.2727C82.5 55.6283 81.3807 56.7273 80 56.7273H76.6667C75.286 56.7273 74.1667 55.6283 74.1667 54.2727Z" fill="#666666"/>
</svg>
