<svg width="22" height="22" viewBox="0 0 22 22" fill="none" xmlns="http://www.w3.org/2000/svg">
<path fill-rule="evenodd" clip-rule="evenodd" d="M1.18642 0.608926C0.563018 1.23233 0.56302 2.24307 1.18642 2.86648L9.08788 10.7679L1.18635 18.6695C0.562941 19.2929 0.562941 20.3036 1.18635 20.927C1.80975 21.5504 2.82049 21.5504 3.4439 20.927L11.3454 13.0255L19.2468 20.9269C19.8702 21.5503 20.881 21.5503 21.5044 20.9269C22.1278 20.3035 22.1278 19.2927 21.5044 18.6693L13.603 10.7679L21.5043 2.86662C22.1277 2.24321 22.1277 1.23247 21.5043 0.609066C20.8809 -0.0143386 19.8701 -0.0143373 19.2467 0.609068L11.3454 8.51038L3.44397 0.608926C2.82057 -0.0144789 1.80983 -0.0144789 1.18642 0.608926Z" fill="#FFF7F3"/>
</svg>
