<svg width="37" height="36" viewBox="0 0 37 36" fill="none" xmlns="http://www.w3.org/2000/svg">
<circle cx="18.25" cy="18" r="18" fill="#FF8D41"/>
<path fill-rule="evenodd" clip-rule="evenodd" d="M10.7623 10.7268C10.3159 11.1731 10.3159 11.8967 10.7623 12.343L16.4192 18L10.7625 23.6567C10.3161 24.103 10.3161 24.8266 10.7625 25.273C11.2088 25.7193 11.9324 25.7193 12.3787 25.273L18.0355 19.6162L23.6922 25.273C24.1385 25.7193 24.8621 25.7193 25.3085 25.273C25.7548 24.8266 25.7548 24.103 25.3085 23.6567L19.6517 18L25.3087 12.343C25.755 11.8967 25.755 11.1731 25.3087 10.7268C24.8623 10.2804 24.1387 10.2804 23.6924 10.7268L18.0355 16.3837L12.3785 10.7268C11.9322 10.2804 11.2086 10.2804 10.7623 10.7268Z" fill="#FFF7F3"/>
</svg>
