<svg width="27" height="27" viewBox="0 0 27 27" fill="none" xmlns="http://www.w3.org/2000/svg">
<g filter="url(#filter0_i_143_477)">
<circle cx="13.5" cy="13.5" r="13.5" fill="#E6E5E5"/>
</g>
<path fill-rule="evenodd" clip-rule="evenodd" d="M9.64698 10.4176C9.64698 8.28957 11.3721 6.5645 13.5 6.5645C15.628 6.5645 17.3531 8.28957 17.3531 10.4176C17.3531 12.5456 15.628 14.2706 13.5 14.2706C11.3721 14.2706 9.64698 12.5456 9.64698 10.4176ZM13.5 8.10572C12.2233 8.10572 11.1882 9.14077 11.1882 10.4176C11.1882 11.6944 12.2233 12.7294 13.5 12.7294C14.7768 12.7294 15.8119 11.6944 15.8119 10.4176C15.8119 9.14077 14.7768 8.10572 13.5 8.10572Z" fill="#FF8D41"/>
<path fill-rule="evenodd" clip-rule="evenodd" d="M2.45459 13.5C2.45459 7.39978 7.39981 2.45456 13.5 2.45456C19.6003 2.45456 24.5455 7.39978 24.5455 13.5C24.5455 19.6003 19.6003 24.5455 13.5 24.5455C7.39981 24.5455 2.45459 19.6003 2.45459 13.5ZM13.5 3.99579C8.251 3.99579 3.99582 8.25097 3.99582 13.5C3.99582 16.1156 5.05235 18.4843 6.76191 20.2028C6.94726 19.203 7.31145 18.2602 8.04243 17.5022C9.13583 16.3682 10.8842 15.8119 13.5 15.8119C16.1157 15.8119 17.8642 16.3682 18.9576 17.5022C19.6886 18.2603 20.0527 19.203 20.2381 20.2029C21.9477 18.4844 23.0043 16.1156 23.0043 13.5C23.0043 8.25097 18.7491 3.99579 13.5 3.99579ZM18.8365 21.3658C18.7318 20.1206 18.4614 19.208 17.8481 18.572C17.1808 17.8799 15.9443 17.3531 13.5 17.3531C11.0557 17.3531 9.8192 17.8799 9.15188 18.572C8.5386 19.208 8.26821 20.1205 8.16352 21.3657C9.68483 22.3999 11.5219 23.0042 13.5 23.0042C15.4782 23.0042 17.3152 22.3999 18.8365 21.3658Z" fill="#FF8D41"/>
<defs>
<filter id="filter0_i_143_477" x="0" y="0" width="27" height="27" filterUnits="userSpaceOnUse" color-interpolation-filters="sRGB">
<feFlood flood-opacity="0" result="BackgroundImageFix"/>
<feBlend mode="normal" in="SourceGraphic" in2="BackgroundImageFix" result="shape"/>
<feColorMatrix in="SourceAlpha" type="matrix" values="0 0 0 0 0 0 0 0 0 0 0 0 0 0 0 0 0 0 127 0" result="hardAlpha"/>
<feOffset/>
<feGaussianBlur stdDeviation="2"/>
<feComposite in2="hardAlpha" operator="arithmetic" k2="-1" k3="1"/>
<feColorMatrix type="matrix" values="0 0 0 0 1 0 0 0 0 0.552941 0 0 0 0 0.254902 0 0 0 0.33 0"/>
<feBlend mode="normal" in2="shape" result="effect1_innerShadow_143_477"/>
</filter>
</defs>
</svg>
