<svg width="40" height="40" viewBox="0 0 40 40" fill="none" xmlns="http://www.w3.org/2000/svg">
<path d="M36.7038 19.3722C35.1177 20.9629 33.0952 22.0471 30.8923 22.4876C28.6895 22.9282 26.4055 22.7051 24.3296 21.8467L10.8055 38.1441C8.33068 40.6186 4.33096 40.6186 1.85612 38.1441C-0.618708 35.6695 -0.618708 31.6701 1.85612 29.2205L18.155 15.6728C16.4551 11.5484 17.2801 6.64925 20.6298 3.29981C23.8296 0.100336 28.4293 -0.749523 32.429 0.650246L25.2045 7.87405L32.254 14.9229L39.4036 7.74907C40.7285 11.6984 39.8535 16.2227 36.7038 19.3722ZM4.53094 35.4695C5.53087 36.4443 7.13076 36.4443 8.1057 35.4695C9.10563 34.4697 9.10563 32.8699 8.1057 31.8951C7.13076 30.8953 5.53087 30.8953 4.53094 31.8951C4.06224 32.3719 3.7996 33.0137 3.7996 33.6823C3.7996 34.3509 4.06224 34.9927 4.53094 35.4695Z" fill="#A3A3A3"/>
</svg>
