<svg width="62" height="62" viewBox="0 0 62 62" fill="none" xmlns="http://www.w3.org/2000/svg">
<path d="M31 0C13.888 0 0 13.888 0 31C0 48.112 13.888 62 31 62C48.112 62 62 48.112 62 31C62 13.888 48.112 0 31 0ZM34.1 10.23L38.285 7.285C43.8927 9.0227 48.7033 12.6911 51.863 17.639L50.654 21.793L46.469 23.219L34.1 14.57V10.23ZM23.715 7.285L27.9 10.23V14.57L15.531 23.219L11.346 21.793L10.137 17.639C13.3151 12.708 18.1188 9.04493 23.715 7.285ZM15.748 46.841L12.214 47.151C8.32798 42.6683 6.19223 36.9326 6.2 31C6.2 30.628 6.231 30.287 6.262 29.915L9.362 27.652L13.64 29.14L18.166 42.594L15.748 46.841ZM38.75 54.529C36.301 55.335 33.697 55.8 31 55.8C28.303 55.8 25.699 55.335 23.25 54.529L21.111 49.91L23.095 46.5H38.936L40.92 49.941L38.75 54.529ZM38.037 40.3H23.963L19.778 27.838L31 19.964L42.253 27.838L38.037 40.3ZM49.786 47.151L46.252 46.841L43.803 42.594L48.329 29.14L52.638 27.683L55.738 29.946C55.769 30.287 55.8 30.628 55.8 31C55.8 37.169 53.537 42.811 49.786 47.151Z" fill="#232323"/>
</svg>
