<svg width="8" height="4" viewBox="0 0 8 4" fill="none" xmlns="http://www.w3.org/2000/svg">
<path d="M3.51175 3.80851L0.139657 0.723405C0.0931453 0.680851 0.0584167 0.634893 0.035471 0.585532C0.0125253 0.53617 0.000742225 0.482837 0.00012207 0.425532C0.00012207 0.312057 0.0429127 0.212766 0.128494 0.127659C0.214075 0.0425529 0.326323 0 0.465238 0H7.535C7.67453 0 7.78709 0.0425529 7.87267 0.127659C7.95826 0.212766 8.00074 0.312057 8.00011 0.425532C8.00011 0.453901 7.9536 0.553192 7.86058 0.723405L4.48849 3.80851C4.41097 3.87943 4.33345 3.92908 4.25593 3.95745C4.17841 3.98582 4.09314 4 4.00012 4C3.9071 4 3.82183 3.98582 3.74431 3.95745C3.66679 3.92908 3.58927 3.87943 3.51175 3.80851Z" fill="white"/>
</svg>
