<svg width="135" height="135" viewBox="0 0 135 135" fill="none" xmlns="http://www.w3.org/2000/svg">
<path fill-rule="evenodd" clip-rule="evenodd" d="M54.7558 117.6H79.6446C97.1224 117.6 105.861 117.6 112.139 113.482C114.856 111.699 117.19 109.408 119.006 106.74C123.2 100.576 123.2 91.9963 123.2 74.8364C123.2 57.6764 123.2 49.0964 119.006 42.933C117.19 40.2648 114.856 37.9738 112.139 36.191C108.105 33.5447 103.055 32.5989 95.3234 32.2608C91.6338 32.2608 88.4571 29.5158 87.7335 25.9636C86.6481 20.6354 81.8831 16.8 76.3487 16.8H58.0517C52.5173 16.8 47.7522 20.6354 46.6669 25.9636C45.9433 29.5158 42.7666 32.2608 39.077 32.2608C31.3453 32.5989 26.2953 33.5447 22.2616 36.191C19.5439 37.9738 17.2106 40.2648 15.3947 42.933C11.2002 49.0964 11.2002 57.6764 11.2002 74.8364C11.2002 91.9963 11.2002 100.576 15.3947 106.74C17.2106 109.408 19.5439 111.699 22.2616 113.482C28.5391 117.6 37.278 117.6 54.7558 117.6ZM67.2002 51.9273C54.3135 51.9273 43.8669 62.184 43.8669 74.8364C43.8669 87.4887 54.3135 97.7455 67.2002 97.7455C80.0868 97.7455 90.5335 87.4887 90.5335 74.8364C90.5335 62.184 80.0868 51.9273 67.2002 51.9273ZM67.2002 61.0909C59.4682 61.0909 53.2002 67.245 53.2002 74.8364C53.2002 82.4278 59.4682 88.5818 67.2002 88.5818C74.9322 88.5818 81.2002 82.4278 81.2002 74.8364C81.2002 67.245 74.9322 61.0909 67.2002 61.0909ZM93.6446 56.5091C93.6446 53.9786 95.734 51.9273 98.3113 51.9273H104.534C107.111 51.9273 109.2 53.9786 109.2 56.5091C109.2 59.0396 107.111 61.0909 104.534 61.0909H98.3113C95.734 61.0909 93.6446 59.0396 93.6446 56.5091Z" fill="#666666"/>
</svg>
