<svg width="15" height="14" viewBox="0 0 15 14" fill="none" xmlns="http://www.w3.org/2000/svg">
<path d="M7.5 0.284091C6.50742 0.284091 5.625 0 5.625 0V0.0568182C5.625 0.53903 5.82254 1.00149 6.17417 1.34247C6.52581 1.68344 7.00272 1.875 7.5 1.875C7.99728 1.875 8.47419 1.68344 8.82582 1.34247C9.17746 1.00149 9.375 0.53903 9.375 0.0568182V0C9.375 0 8.49258 0.284091 7.5 0.284091Z" fill="#FF8D41"/>
<path d="M10.5 0C10.3284 1.43773 9.03781 2.55877 7.5 2.55877C5.96219 2.55877 4.67156 1.43773 4.5 0L0 1.50516L0.5625 4.93693L2.49094 5.16029C2.71219 5.18739 2.71281 5.18739 2.71281 5.40684L2.5 13.125H12.5L12.2872 5.40684C12.2806 5.19612 12.2806 5.19612 12.5091 5.16029L14.4375 4.93693L15 1.50516L10.5 0Z" fill="#FF8D41"/>
</svg>
