<svg width="84" height="74" viewBox="0 0 84 74" fill="none" xmlns="http://www.w3.org/2000/svg">
<path d="M41.7863 1.58279C36.2562 1.58279 31.3398 0 31.3398 0V0.316558C31.3398 3.00317 32.4404 5.57974 34.3995 7.47946C36.3586 9.37918 39.0157 10.4464 41.7863 10.4464C44.5568 10.4464 47.2139 9.37918 49.173 7.47946C51.1321 5.57974 52.2327 3.00317 52.2327 0.316558V0C52.2327 0 47.3163 1.58279 41.7863 1.58279Z" fill="#232323"/>
<path d="M58.5 0C57.5441 8.01021 50.3535 14.256 41.7857 14.256C33.2179 14.256 26.0273 8.01021 25.0714 0L0 8.38589L3.13393 27.5057L13.8781 28.7502C15.1108 28.9011 15.1142 28.9011 15.1142 30.1238L13.9286 73.125H69.6429L68.4572 30.1238C68.4206 28.9498 68.4206 28.9498 69.6933 28.7502L80.4375 27.5057L83.5714 8.38589L58.5 0Z" fill="#232323"/>
</svg>
