<svg width="68" height="75" viewBox="0 0 68 75" fill="none" xmlns="http://www.w3.org/2000/svg">
<path d="M39.9761 52.7464V43.2726C39.9761 42.5075 39.6613 41.7737 39.1011 41.2327C38.5409 40.6917 37.7811 40.3877 36.9888 40.3877H31.0142C30.2219 40.3877 29.462 40.6917 28.9018 41.2327C28.3416 41.7737 28.0268 42.5075 28.0268 43.2726V52.7406C23.4865 53.8619 19.3892 56.2507 16.247 59.6084C13.1048 62.9661 11.0571 67.1437 10.3599 71.619C10.2918 72.0361 10.318 72.4626 10.4367 72.869C10.5554 73.2754 10.7639 73.6522 11.0477 73.9735C11.3316 74.2947 11.6841 74.5528 12.081 74.73C12.478 74.9072 12.9099 74.9993 13.3472 75H54.7035C55.1408 74.9993 55.5728 74.9072 55.9697 74.73C56.3667 74.5528 56.7192 74.2947 57.003 73.9735C57.2868 73.6522 57.4953 73.2754 57.614 72.869C57.7328 72.4626 57.7589 72.0361 57.6908 71.619C56.9891 67.1388 54.9338 62.9582 51.7826 59.6011C48.6314 56.2439 44.5244 53.8594 39.9761 52.7464ZM67.6923 30.4581L52.7558 1.60974C52.5099 1.12793 52.1297 0.721965 51.6578 0.437565C51.186 0.153164 50.6413 0.00162066 50.0851 0H17.9178C17.3645 0.00108713 16.8224 0.150548 16.3519 0.43172C15.8814 0.712893 15.501 1.11473 15.2531 1.59243L0.316582 30.4408C0.0890293 30.8793 -0.0189891 31.3666 0.00273388 31.8566C0.0244569 32.3467 0.175204 32.8233 0.440731 33.2414C0.706257 33.6595 1.07779 34.0054 1.52024 34.2463C1.96268 34.4871 2.46141 34.6151 2.96931 34.618H51.9253V43.2726C51.9253 44.0377 52.24 44.7714 52.8003 45.3125C53.3605 45.8535 54.1203 46.1574 54.9126 46.1574C55.7049 46.1574 56.4647 45.8535 57.025 45.3125C57.5852 44.7714 57.8999 44.0377 57.8999 43.2726V34.618H65.0336C65.5396 34.6146 66.0363 34.4872 66.4773 34.2476C66.9183 34.008 67.2891 33.6642 67.5548 33.2484C67.8205 32.8326 67.9726 32.3585 67.9966 31.8704C68.0207 31.3824 67.916 30.8964 67.6923 30.4581Z" fill="#232323"/>
</svg>
