<svg width="10" height="11" viewBox="0 0 10 11" fill="none" xmlns="http://www.w3.org/2000/svg">
<path d="M5.87884 7.73613V6.34664C5.87884 6.23443 5.83255 6.12681 5.75016 6.04746C5.66778 5.96811 5.55604 5.92353 5.43953 5.92353H4.56091C4.44439 5.92353 4.33265 5.96811 4.25027 6.04746C4.16788 6.12681 4.1216 6.23443 4.1216 6.34664V7.73529C3.4539 7.89975 2.85135 8.2501 2.38926 8.74256C1.92717 9.23502 1.62604 9.84774 1.52352 10.5041C1.5135 10.5653 1.51735 10.6278 1.53481 10.6875C1.55227 10.7471 1.58292 10.8023 1.62466 10.8494C1.66641 10.8966 1.71825 10.9344 1.77662 10.9604C1.83499 10.9864 1.89852 10.9999 1.96283 11H8.04463C8.10894 10.9999 8.17247 10.9864 8.23084 10.9604C8.28921 10.9344 8.34105 10.8966 8.38279 10.8494C8.42454 10.8023 8.45519 10.7471 8.47265 10.6875C8.49011 10.6278 8.49396 10.5653 8.48394 10.5041C8.38074 9.84702 8.07851 9.23388 7.61509 8.74149C7.15168 8.24911 6.5477 7.89938 5.87884 7.73613ZM9.95475 4.46719L7.7582 0.236095C7.72205 0.16543 7.66613 0.105888 7.59674 0.0641761C7.52736 0.022464 7.44725 0.000237697 7.36546 0H2.63497C2.5536 0.000159445 2.47388 0.0220803 2.40469 0.063319C2.3355 0.104558 2.27956 0.163493 2.24311 0.233556L0.0465562 4.46465C0.0130925 4.52897 -0.00279252 4.60044 0.000402041 4.67231C0.0035966 4.74418 0.0257653 4.81408 0.0648134 4.87541C0.103861 4.93673 0.158499 4.98745 0.223564 5.02278C0.288629 5.05811 0.361972 5.07688 0.436663 5.07731H7.63607V6.34664C7.63607 6.45886 7.68236 6.56648 7.76475 6.64583C7.84713 6.72517 7.95887 6.76975 8.07539 6.76975C8.1919 6.76975 8.30364 6.72517 8.38602 6.64583C8.46841 6.56648 8.51469 6.45886 8.51469 6.34664V5.07731H9.56377C9.63817 5.07681 9.71123 5.05812 9.77608 5.02298C9.84093 4.98785 9.89545 4.93742 9.93453 4.87644C9.97361 4.81546 9.99597 4.74591 9.9995 4.67433C10.003 4.60275 9.98764 4.53147 9.95475 4.46719Z" fill="#FF8D41"/>
</svg>
