<svg width="15" height="23" viewBox="0 0 15 23" fill="none" xmlns="http://www.w3.org/2000/svg">
<path d="M7.49997 0.566467C11.643 0.566467 15 3.56395 15 7.27684C15 13.6967 7.49997 22.0692 7.49997 22.0692C7.49997 22.0692 -5.53131e-05 13.6954 -5.53131e-05 7.27684C-5.53131e-05 3.56529 3.35696 0.566467 7.49997 0.566467ZM7.49997 10.9897C8.5741 10.9897 9.60424 10.6072 10.3638 9.92628C11.1233 9.24536 11.55 8.32183 11.55 7.35887C11.55 6.39591 11.1233 5.47238 10.3638 4.79146C9.60424 4.11054 8.5741 3.72801 7.49997 3.72801C6.42584 3.72801 5.39571 4.11054 4.63618 4.79146C3.87665 5.47238 3.44996 6.39591 3.44996 7.35887C3.44996 8.32183 3.87665 9.24536 4.63618 9.92628C5.39571 10.6072 6.42584 10.9897 7.49997 10.9897Z" fill="white"/>
</svg>
