<svg width="42" height="42" viewBox="0 0 42 42" fill="none" xmlns="http://www.w3.org/2000/svg">
<path d="M32.7138 5.13183L28.5138 2.9162C24.8262 0.972769 22.9824 0 21 0C19.0176 0 17.1738 0.970659 13.4862 2.9162L12.8121 3.27281L31.5504 14.0324L39.984 9.791C38.6274 8.24638 36.4392 7.09214 32.7138 5.12761M41.4708 12.5848L33.075 16.8051V23.2114C33.075 23.6311 32.9091 24.0337 32.6137 24.3305C32.3183 24.6273 31.9177 24.794 31.5 24.794C31.0823 24.794 30.6817 24.6273 30.3863 24.3305C30.0909 24.0337 29.925 23.6311 29.925 23.2114V18.3877L22.575 22.0804V42C24.0828 41.6223 25.7985 40.7192 28.5138 39.2864L32.7138 37.0707C37.2309 34.6884 39.4905 33.4983 40.7463 31.3565C42 29.2168 42 26.5518 42 21.2279V20.981C42 16.9865 42 14.4881 41.4708 12.5848ZM19.425 42V22.0804L0.5292 12.5848C1.87755e-07 14.4881 0 16.9865 0 20.9768V21.2237C0 26.5517 -2.50339e-07 29.2168 1.2537 31.3565C2.5095 33.4983 4.7691 34.6905 9.2862 37.0728L13.4862 39.2864C16.2015 40.7192 17.9172 41.6223 19.425 42ZM2.016 9.79311L21 19.3309L28.1631 15.7331L9.5025 5.01789L9.2862 5.13183C5.5629 7.09425 3.3726 8.24849 2.016 9.79522" fill="#A3A3A3"/>
</svg>
