<svg width="24" height="24" viewBox="0 0 24 24" fill="none" xmlns="http://www.w3.org/2000/svg">
<path fill-rule="evenodd" clip-rule="evenodd" d="M11.9999 0.571533C11.2985 0.571533 10.73 1.14006 10.73 1.84138V10.7303H1.84113C1.13982 10.7303 0.571289 11.2988 0.571289 12.0001C0.571289 12.7014 1.13982 13.2699 1.84113 13.2699H10.73V22.1588C10.73 22.8601 11.2985 23.4287 11.9999 23.4287C12.7012 23.4287 13.2697 22.8601 13.2697 22.1588V13.2699H22.1586C22.8599 13.2699 23.4284 12.7014 23.4284 12.0001C23.4284 11.2988 22.8599 10.7303 22.1586 10.7303H13.2697V1.84137C13.2697 1.14006 12.7012 0.571533 11.9999 0.571533Z" fill="#FFF7F3"/>
</svg>
