<svg width="35" height="45" viewBox="0 0 35 45" fill="none" xmlns="http://www.w3.org/2000/svg">
<path d="M24.6629 5.625V24.4474C24.6629 25.5578 26.0945 25.9965 26.7133 25.0774L29.767 20.5369C30.1778 19.9255 30.8072 19.4961 31.5248 19.3378C32.2425 19.1795 32.9933 19.3043 33.6217 19.6865C34.2501 20.0686 34.7079 20.6788 34.9003 21.3904C35.0926 22.1021 35.0047 22.8607 34.6547 23.5091L26.877 37.9271C25.7229 40.0663 24.0144 41.8528 21.932 43.0978C19.8495 44.3428 17.4706 45 15.0466 45H13.4525C6.02335 45 0 38.9554 0 31.5V12.375C0 11.7783 0.236219 11.206 0.656691 10.784C1.07716 10.3621 1.64744 10.125 2.24208 10.125C2.83672 10.125 3.407 10.3621 3.82747 10.784C4.24795 11.206 4.48416 11.7783 4.48416 12.375V23.7499H6.72625V5.625C6.72625 5.02826 6.96247 4.45597 7.38294 4.03401C7.80341 3.61205 8.37369 3.375 8.96833 3.375C9.56297 3.375 10.1332 3.61205 10.5537 4.03401C10.9742 4.45597 11.2104 5.02826 11.2104 5.625V21.375H13.4525V2.25C13.4525 1.65326 13.6887 1.08097 14.1092 0.65901C14.5297 0.237053 15.0999 0 15.6946 0C16.2892 0 16.8595 0.237053 17.28 0.65901C17.7004 1.08097 17.9367 1.65326 17.9367 2.25V21.375H20.1787V5.625C20.1787 5.02826 20.415 4.45597 20.8354 4.03401C21.2559 3.61205 21.8262 3.375 22.4208 3.375C23.0155 3.375 23.5857 3.61205 24.0062 4.03401C24.4267 4.45597 24.6629 5.02826 24.6629 5.625Z" fill="#A3A3A3"/>
</svg>
