<svg width="93" height="62" viewBox="0 0 93 62" fill="none" xmlns="http://www.w3.org/2000/svg">
<path d="M24.892 8.85714H32.55V22.1429H16.1733L20.5908 11.6388C21.2883 9.96428 22.9884 8.85714 24.892 8.85714ZM39.525 22.1429V8.85714H51.3244C52.7339 8.85714 54.0708 9.46607 54.9572 10.5179L64.7222 22.1429H39.525ZM76.7541 22.2812L62.2228 4.98214C59.5781 1.82679 55.5675 0 51.3244 0H24.892C19.1813 0 14.0517 3.30759 11.9447 8.34509L5.89969 22.7518C2.44125 24.0527 0 27.2496 0 31V46.5C0 48.9496 2.07797 50.9286 4.65 50.9286H9.48891C10.5933 57.2116 16.3331 62 23.25 62C30.1669 62 35.9067 57.2116 37.0111 50.9286H55.9889C57.0933 57.2116 62.8331 62 69.75 62C76.6669 62 82.4067 57.2116 83.5111 50.9286H88.35C90.922 50.9286 93 48.9496 93 46.5V39.8571C93 30.8339 85.9088 23.3884 76.7541 22.2812ZM63.1673 46.5C63.4634 45.6663 63.9304 44.897 64.5412 44.2366C65.1521 43.5763 65.8946 43.0382 66.7257 42.6534C67.5568 42.2687 68.4599 42.0451 69.3825 41.9956C70.3051 41.9461 71.2288 42.0717 72.1 42.3651C72.9712 42.6585 73.7725 43.1138 74.4574 43.7046C75.1422 44.2954 75.697 45.01 76.0895 45.8067C76.4819 46.6035 76.7042 47.4665 76.7435 48.3458C76.7827 49.2251 76.6382 50.103 76.3181 50.9286C76.0221 51.7622 75.5551 52.5316 74.9443 53.1919C74.3334 53.8523 73.5908 54.3904 72.7598 54.7751C71.9287 55.1598 71.0256 55.3834 70.103 55.4329C69.1804 55.4824 68.2567 55.3568 67.3855 55.0635C66.5143 54.7701 65.713 54.3148 65.0281 53.7239C64.3432 53.1331 63.7885 52.4186 63.396 51.6218C63.0036 50.8251 62.7812 49.962 62.742 49.0828C62.7027 48.2035 62.8473 47.3256 63.1673 46.5ZM23.25 42.0714C25.0999 42.0714 26.874 42.7713 28.1821 44.0171C29.4901 45.2629 30.225 46.9525 30.225 48.7143C30.225 50.4761 29.4901 52.1657 28.1821 53.4115C26.874 54.6573 25.0999 55.3571 23.25 55.3571C21.4001 55.3571 19.626 54.6573 18.3179 53.4115C17.0099 52.1657 16.275 50.4761 16.275 48.7143C16.275 46.9525 17.0099 45.2629 18.3179 44.0171C19.626 42.7713 21.4001 42.0714 23.25 42.0714Z" fill="#232323"/>
</svg>
